<?xml version="1.0" encoding="utf-8"?>
<!-- Generator: Adobe Illustrator 22.0.1, SVG Export Plug-In . SVG Version: 6.00 Build 0)  -->
<svg version="1.1" id="Layer_1" xmlns="http://www.w3.org/2000/svg" xmlns:xlink="http://www.w3.org/1999/xlink" x="0px" y="0px"
	 viewBox="0 0 500 500" style="enable-background:new 0 0 500 500;" xml:space="preserve">
<style type="text/css">
	.st0{fill:none;stroke:#4A1ED3;stroke-width:6;stroke-linecap:round;stroke-linejoin:round;stroke-miterlimit:10;}
	.st1{fill:#4A1ED3;stroke:#4A1ED3;stroke-width:6;stroke-linecap:round;stroke-linejoin:round;stroke-miterlimit:10;}
	.st2{fill:#4A1ED3;stroke:#4A1ED3;stroke-width:3;stroke-linecap:round;stroke-linejoin:round;stroke-miterlimit:10;}
	.st3{fill:#3EA5F9;}
	.st4{fill:none;stroke:#FFFFFF;stroke-width:6;stroke-linecap:round;stroke-linejoin:round;stroke-miterlimit:10;}
	.st5{fill:#FFFFFF;stroke:#FFFFFF;stroke-width:2;stroke-linecap:round;stroke-linejoin:round;stroke-miterlimit:10;}
</style>
<g>
	<circle class="st3" cx="250" cy="250" r="176.2"/>
	<g>
		<path class="st4" d="M327.2,196.4c28.5,39.6,24.9,95.1-10.7,130.7c-39.6,39.6-103.7,39.6-143.3,0s-39.6-103.7,0-143.3
			c34.6-34.6,88.1-38.9,127.4-13"/>
		<circle class="st4" cx="244.9" cy="255.4" r="67.6"/>
		<circle class="st4" cx="244.9" cy="255.4" r="33.3"/>
		<line class="st4" x1="243.6" y1="256.1" x2="297.5" y2="202.2"/>
		<path class="st4" d="M323.8,199.8l-22.7-1.2l-2-23.5l30.3-30.3c3-3,8.2-0.9,8.3,3.3l0.3,10.8l14.2,1.6c4,0.4,5.8,5.4,2.9,8.2
			L323.8,199.8z"/>
	</g>
</g>
</svg>
