<?xml version="1.0" encoding="utf-8"?>
<!-- Generator: Adobe Illustrator 22.0.1, SVG Export Plug-In . SVG Version: 6.00 Build 0)  -->
<svg version="1.1" id="Layer_1" xmlns="http://www.w3.org/2000/svg" xmlns:xlink="http://www.w3.org/1999/xlink" x="0px" y="0px"
	 viewBox="0 0 500 500" style="enable-background:new 0 0 500 500;" xml:space="preserve">
<style type="text/css">
	.st0{fill:none;stroke:#4A1ED3;stroke-width:6;stroke-linecap:round;stroke-linejoin:round;stroke-miterlimit:10;}
	.st1{fill:#4A1ED3;stroke:#4A1ED3;stroke-width:6;stroke-linecap:round;stroke-linejoin:round;stroke-miterlimit:10;}
	.st2{fill:#4A1ED3;stroke:#4A1ED3;stroke-width:3;stroke-linecap:round;stroke-linejoin:round;stroke-miterlimit:10;}
	.st3{fill:#3EA5F9;}
	.st4{fill:none;stroke:#FFFFFF;stroke-width:6;stroke-linecap:round;stroke-linejoin:round;stroke-miterlimit:10;}
	.st5{fill:#FFFFFF;stroke:#FFFFFF;stroke-width:2;stroke-linecap:round;stroke-linejoin:round;stroke-miterlimit:10;}
</style>
<g>
	<circle class="st3" cx="250" cy="250" r="176.2"/>
	<g>
		<g>
			<path class="st4" d="M195.8,160.9h108.3c1.4,0,2.5,1.6,2.5,3.7v10.1c0,2-1.1,3.7-2.5,3.7H195.8c-1.4,0-2.5-1.6-2.5-3.7v-10.1
				C193.4,162.6,194.5,160.9,195.8,160.9z"/>
			<path class="st4" d="M195.8,339.1h108.3c1.4,0,2.5-1.6,2.5-3.6v-10c0-2-1.1-3.6-2.5-3.6H195.8c-1.4,0-2.5,1.6-2.5,3.6v10
				C193.4,337.5,194.5,339.1,195.8,339.1z"/>
			<path class="st4" d="M297.9,191.3v-12.9h-95.7v13.5c0,17.5,8.2,34,21.8,44.6l16.7,12.9L224,262.3c-13.6,10.6-21.8,27.1-21.8,44.6
				v14.9h95.7v-14.3c0-17.8-7.3-34.6-21.4-45.2l-16.7-12.9l16.5-12.9C290.4,225.9,297.9,209.1,297.9,191.3z"/>
			<path class="st5" d="M251.9,278.7C251.9,278.7,251.9,278.7,251.9,278.7c0,0-25.5,12.7-38.2,43.1h74.7
				C275.6,291.4,251.9,278.7,251.9,278.7z"/>
			<path class="st5" d="M219.6,208.8c11.2,21.7,26.9,27.3,30.5,27.2c3.3,0,19.2-5.5,30.5-27.2H219.6z"/>
		</g>
	</g>
</g>
</svg>
