<?xml version="1.0" encoding="utf-8"?>
<!-- Generator: Adobe Illustrator 22.0.1, SVG Export Plug-In . SVG Version: 6.00 Build 0)  -->
<svg version="1.1" id="Layer_1" xmlns="http://www.w3.org/2000/svg" xmlns:xlink="http://www.w3.org/1999/xlink" x="0px" y="0px"
	 viewBox="0 0 500 500" style="enable-background:new 0 0 500 500;" xml:space="preserve">
<style type="text/css">
	.st0{fill:none;stroke:#4A1ED3;stroke-width:6;stroke-linecap:round;stroke-linejoin:round;stroke-miterlimit:10;}
	.st1{fill:#4A1ED3;stroke:#4A1ED3;stroke-width:6;stroke-linecap:round;stroke-linejoin:round;stroke-miterlimit:10;}
	.st2{fill:#4A1ED3;stroke:#4A1ED3;stroke-width:3;stroke-linecap:round;stroke-linejoin:round;stroke-miterlimit:10;}
	.st3{fill:#3EA5F9;}
	.st4{fill:none;stroke:#FFFFFF;stroke-width:6;stroke-linecap:round;stroke-linejoin:round;stroke-miterlimit:10;}
	.st5{fill:#FFFFFF;stroke:#FFFFFF;stroke-width:2;stroke-linecap:round;stroke-linejoin:round;stroke-miterlimit:10;}
</style>
<g>
	<g>
		<path class="st0" d="M373.3,182.8L183.8,372.3c-1.2,1.2-3.2,1.2-4.5,0l-50.6-50.6c-1.2-1.2-1.2-3.2,0-4.5l189.5-189.5
			c1.2-1.2,3.2-1.2,4.5,0l50.6,50.6C374.6,179.6,374.6,181.6,373.3,182.8z"/>
		<g>
			<line class="st0" x1="209.6" y1="344" x2="194.3" y2="328.7"/>
			<line class="st0" x1="228.8" y1="324.9" x2="217.3" y2="313.4"/>
			<line class="st0" x1="247.9" y1="305.8" x2="232.6" y2="290.5"/>
			<line class="st0" x1="267" y1="286.6" x2="255.5" y2="275.2"/>
			<line class="st0" x1="286.2" y1="267.5" x2="270.8" y2="252.2"/>
			<line class="st0" x1="305.3" y1="248.4" x2="293.8" y2="236.9"/>
			<line class="st0" x1="324.4" y1="229.2" x2="309.1" y2="213.9"/>
			<line class="st0" x1="343.5" y1="210.1" x2="332.1" y2="198.6"/>
		</g>
	</g>
	<g>
		<g>
			<path class="st0" d="M300.3,255.9l57.7,57.7l9.3,51.7c0.7,4.2-2.8,7.7-7,7l-51.7-9.3l-57.1-57.1"/>
			<path class="st0" d="M195.9,250.1l-68.3-68.3c-2.4-2.4-2.5-6.4-0.2-8.7l40.8-40.8c2.4-2.4,6.3-2.3,8.7,0.2l68.3,68.3"/>
			
				<rect x="148" y="174.1" transform="matrix(0.7071 -0.7071 0.7071 0.7071 -79.202 184.3093)" class="st0" width="69.8" height="27.3"/>
			<path class="st1" d="M194.3,156.7l-42.5,42.5c-1.9,1.9-5,1.9-6.9,0l-17.7-17.7c-1.9-1.9-1.9-5,0-6.9l42.5-42.5
				c1.9-1.9,5-1.9,6.9,0l17.7,17.7C196.2,151.7,196.2,154.8,194.3,156.7z"/>
		</g>
		<path class="st1" d="M362.5,344.3l-22.8,22.8c0,0,22,5.5,25.4,1.5C368.3,364.8,362.5,344.3,362.5,344.3z"/>
		<line class="st0" x1="306.5" y1="360.7" x2="352.5" y2="314.8"/>
	</g>
</g>
</svg>
