<?xml version="1.0" encoding="utf-8"?>
<!-- Generator: Adobe Illustrator 22.0.1, SVG Export Plug-In . SVG Version: 6.00 Build 0)  -->
<svg version="1.1" id="Layer_1" xmlns="http://www.w3.org/2000/svg" xmlns:xlink="http://www.w3.org/1999/xlink" x="0px" y="0px"
	 viewBox="0 0 500 500" style="enable-background:new 0 0 500 500;" xml:space="preserve">
<style type="text/css">
	.st0{fill:none;stroke:#4A1ED3;stroke-width:6;stroke-linecap:round;stroke-linejoin:round;stroke-miterlimit:10;}
	.st1{fill:#4A1ED3;stroke:#4A1ED3;stroke-width:6;stroke-linecap:round;stroke-linejoin:round;stroke-miterlimit:10;}
	.st2{fill:#4A1ED3;stroke:#4A1ED3;stroke-width:3;stroke-linecap:round;stroke-linejoin:round;stroke-miterlimit:10;}
	.st3{fill:#3EA5F9;}
	.st4{fill:none;stroke:#FFFFFF;stroke-width:6;stroke-linecap:round;stroke-linejoin:round;stroke-miterlimit:10;}
	.st5{fill:#FFFFFF;stroke:#FFFFFF;stroke-width:2;stroke-linecap:round;stroke-linejoin:round;stroke-miterlimit:10;}
</style>
<g>
	<polygon class="st2" points="284.8,159.1 284.8,235.2 302.5,217.8 303,217.8 317.4,222.2 317.4,146 	"/>
	<g>
		<path class="st0" d="M382.7,168.8h15.8c3.6,0,6.5,2.9,6.5,6.5v186.3c0,3.6-2.9,6.5-6.5,6.5h-297c-3.6,0-6.5-2.9-6.5-6.5V175.3
			c0-3.6,2.9-6.5,6.5-6.5h13.6"/>
		<path class="st0" d="M247.3,360.1c-54.4-53-132.2-6.5-132.2-6.5V170.8c0,0,78.7-52.3,132.3,0L247.3,360.1z"/>
		<line class="st0" x1="249.6" y1="170.8" x2="249" y2="360.1"/>
		<path class="st0" d="M314.2,334.7c36.9,0.4,68.5,18.9,68.5,18.9V170.8c0,0-10-6.6-25.4-12.8"/>
		<polygon class="st0" points="249.9,171.5 356.6,131.9 356.6,315.7 246.6,360.1 		"/>
		<path class="st0" d="M143.4,203.6c0,0,49-23.1,79.4-5.1"/>
		<path class="st0" d="M143.4,236.2c0,0,49-23.1,79.4-5.1"/>
		<path class="st0" d="M143.4,268.9c0,0,49-23.1,79.4-5.1"/>
		<path class="st0" d="M143.4,301.5c0,0,49-23.1,79.4-5.1"/>
	</g>
</g>
</svg>
