<?xml version="1.0" encoding="utf-8"?>
<!-- Generator: Adobe Illustrator 22.0.1, SVG Export Plug-In . SVG Version: 6.00 Build 0)  -->
<svg version="1.1" id="Layer_1" xmlns="http://www.w3.org/2000/svg" xmlns:xlink="http://www.w3.org/1999/xlink" x="0px" y="0px"
	 viewBox="0 0 500 500" style="enable-background:new 0 0 500 500;" xml:space="preserve">
<style type="text/css">
	.st0{fill:none;stroke:#4A1ED3;stroke-width:6;stroke-linecap:round;stroke-linejoin:round;stroke-miterlimit:10;}
	.st1{fill:#4A1ED3;stroke:#4A1ED3;stroke-width:6;stroke-linecap:round;stroke-linejoin:round;stroke-miterlimit:10;}
	.st2{fill:#4A1ED3;stroke:#4A1ED3;stroke-width:3;stroke-linecap:round;stroke-linejoin:round;stroke-miterlimit:10;}
	.st3{fill:#3EA5F9;}
	.st4{fill:none;stroke:#FFFFFF;stroke-width:6;stroke-linecap:round;stroke-linejoin:round;stroke-miterlimit:10;}
	.st5{fill:#FFFFFF;stroke:#FFFFFF;stroke-width:2;stroke-linecap:round;stroke-linejoin:round;stroke-miterlimit:10;}
</style>
<g>
	<path class="st0" d="M232.7,159.8c-6-5-9.8-12.4-9.8-20.8c0-14.9,12.1-27,27-27c14.9,0,27,12.1,27,27c0,8.4-3.8,15.8-9.8,20.8"/>
	<path class="st0" d="M250,183.9c6.1,0,12.1,0.5,17.9,1.6v-21.2c0-9.9-8-17.9-17.9-17.9c-9.9,0-17.9,8-17.9,17.9v21.2
		C237.9,184.4,243.9,183.9,250,183.9z"/>
	<path class="st2" d="M249.5,345.9c33,0,59.8-26.8,59.8-59.8s-26.8-59.8-59.8-59.8c-0.1,0-0.1,0-0.2,0l3.6,59.5h0.1l-39.7,48
		C223.4,341.3,235.9,345.9,249.5,345.9z"/>
	<path class="st0" d="M234.6,231.3c0,0-43.4,4-43.6,54.1c-0.1,23.5,13.3,34.4,13.3,34.4l32.1-39L234.6,231.3z"/>
	<g>
		<line class="st0" x1="338.6" y1="186.1" x2="317.4" y2="207.3"/>
		<line class="st0" x1="349.2" y1="196.7" x2="328" y2="175.6"/>
	</g>
	<circle class="st0" cx="250" cy="286" r="102.1"/>
	<circle class="st0" cx="250" cy="286" r="78.2"/>
</g>
</svg>
